<?xml version="1.0" encoding="utf-8"?>
<!-- Generator: Adobe Illustrator 23.0.0, SVG Export Plug-In . SVG Version: 6.00 Build 0)  -->
<svg version="1.1" id="Layer_1" xmlns="http://www.w3.org/2000/svg" xmlns:xlink="http://www.w3.org/1999/xlink" x="0px" y="0px"
	 viewBox="0 0 72.8 78.4" style="enable-background:new 0 0 72.8 78.4;" xml:space="preserve">
<style type="text/css">
	.st0{fill:#48E5C2;}
	.st1{fill-rule:evenodd;clip-rule:evenodd;fill:#48E5C2;}
</style>
<title>cat5</title>
<path class="st0" d="M59.3,16.3C58.9,7.2,51.5,0,42.4,0h-12c-9.1,0-16.5,7.2-16.9,16.3H0v62.1h72.8V16.3H59.3z M30.4,3h12
	c7.4,0,13.5,5.8,13.9,13.3H16.5C16.9,8.8,23,3,30.4,3z M69.8,75.4H3V19.3h10.5v8.5h3v-8.5h39.8v8.5h3v-8.5h10.5V75.4z"/>
<path class="st1" d="M44.3,42.3c-2.4,0.1-4.4,2.2-4.3,4.6s2.2,4.4,4.6,4.3c2.4-0.1,4.3-2,4.3-4.4C48.8,44.2,46.8,42.2,44.3,42.3z
	 M47.9,46.5c-1.5,4-6.9,1.4-5-2.6C36.6,49.6,47.4,53.9,47.9,46.5z M28.6,42.3c-2.4,0.1-4.4,2.2-4.3,4.6c0.1,2.4,2.2,4.4,4.6,4.3
	c2.4-0.1,4.3-2,4.3-4.4C33.1,44.2,31.1,42.2,28.6,42.3z M32.2,46.5c-1.5,4-6.9,1.4-5-2.6C20.9,49.6,31.7,53.9,32.2,46.5z M41.2,53.7
	l0.3,0.7L37,58.7c1.2,1.1,2.8,1.9,4.5,2.1c2.2,0.2,4.3-0.8,4.5-3.3l0.8,0.1c-0.3,2.9-2.7,4.2-5.4,3.9c-1.8-0.2-3.6-1-4.9-2.3
	c-1.4,1.3-3.1,2.1-4.9,2.3c-2.7,0.3-5.1-1.1-5.4-3.9l0.8-0.1c0.2,2.4,2.3,3.5,4.6,3.3c1.7-0.2,3.2-0.9,4.5-2.1l-4.5-4.3l0.3-0.7
	H41.2z M36.5,58.2l3.8-3.7h-7.7L36.5,58.2z M47.2,36.6L55,32l1.2,1l-3,9.3c1.7,2.6,2.6,5.6,2.7,8.7c0,10.4-9.7,17.3-19.5,17.3
	S16.9,61.5,16.9,51c0-3.1,0.9-6.1,2.6-8.7l-3-9.3l1.2-1l7.8,4.6C32.3,32.8,40.5,32.8,47.2,36.6L47.2,36.6z M54,34.6l-6.8,4
	c-6.6-4.3-15-4.3-21.6,0l-6.8-4l2.6,8c-1.8,2.4-2.8,5.4-2.8,8.5c0,9.5,8.9,15.6,17.8,15.6s17.8-6.2,17.8-15.6c0-3-1-6-2.8-8.5
	L54,34.6L54,34.6z"/>
</svg>
