<svg version="1" xmlns="http://www.w3.org/2000/svg" width="980" height="980" viewBox="0 0 735.000000 735.000000"><path d="M394 .7c-4 1.5-11.7 8.3-18 16-11.4 13.7-22.5 31.6-36.3 58.3-6.2 11.9-3.3 10.3-24.2 13.5-77 11.6-150.6 54.3-200.6 116.2-39.3 48.9-62.6 103.9-70.5 166.8-2.1 16.9-2.4 54.5-.6 71 3.7 32.2 10.1 58.4 20.9 86C105 630.6 193 705.4 299.7 728c25.5 5.4 36.3 6.4 66.3 6.4 29.6 0 42.2-1.2 66-6 75.8-15.6 145.2-59 192.1-120.3 34.3-44.8 56.8-98.4 64.4-153 2.4-17.8 3.8-45.6 2.5-49.6-1.9-5.6-6.2-8.5-12.7-8.5-5.1 0-5.9.3-9.3 3.8l-3.8 3.7-.7 14c-1.7 35.7-7.2 63.6-18.8 95.5-5.2 14.4-18.5 41.3-27 54.7-44 69-114.4 117.3-193.9 132.8-22.5 4.4-39.5 5.8-64.3 5.2-29.4-.8-50.4-3.9-77-11.7-102.9-30.2-182.4-115.2-205.9-220.3-15.4-68.5-5.9-139.7 27-202.6 45.7-87.6 133-146.7 232.6-157.5 9.8-1.1 13.3-1.8 15.7-3.5 2.1-1.5 5.7-7.5 12.1-19.9 11.4-22.1 22.2-40.4 30.7-51.6l6.6-8.8 5.4 5.4c10.4 10.2 18.4 22.5 24.3 37.2 5.2 13 5.4 13.2 27.2 13.9 38.5 1.3 73.5 11.4 94.1 27.1 6.5 4.9 8 5.6 13.4 5.6 4.1 0 6.1-.8 12.8-5.1 11.2-7.1 17.6-10.2 29.4-14.3 14.7-5.1 14.8-5.1 15.8 3.1 1.3 11.5.8 39.8-1.1 52.3-3.6 24.6-14.9 59.8-26.1 81.9-3.2 6.4-3.2 7.3.7 12.8 1.7 2.6 5.5 8.6 8.4 13.5l5.2 8.9 7.5-14.8c13.2-26.2 22.9-54.4 28.7-83.3 4.2-21.4 5.3-34.3 4.7-55.8-.7-26.4-4.1-42.8-9.8-47.6-4.1-3.5-8-4-19.5-2.6-18.2 2.2-36.8 8.2-50.7 16.5l-6.1 3.7-12.6-6.5c-14.9-7.7-27.5-12.5-42.4-16.2-12.8-3.1-32-6-46.1-7l-10.1-.7-3.9-8.2C440.7 28.2 423.6 9.1 407.9 2 403.7.1 397.2-.5 394 .7z"/><path d="M367 321.9V405H200.8l.5 8.7c1.6 24 7.3 45.6 17.3 65.6 24.8 49.3 72.1 83 126.8 90.1 85.3 11.2 165.3-45 183.6-129 12.8-59.1-8.2-122-53.9-161.1-27.6-23.6-60.7-36.9-98.8-39.8l-9.3-.7v83.1z"/></svg>