<svg id="Layer_1" data-name="Layer 1" xmlns="http://www.w3.org/2000/svg" viewBox="0 0 455.46 455.46"><defs><style>.cls-1{fill:#48e5c2;fill-rule:evenodd;}</style></defs><title>cat4</title><path class="cls-1" d="M227.73,0C353.51,0,455.46,102,455.46,227.74S353.51,455.46,227.73,455.46,0,353.51,0,227.74,102,0,227.73,0Zm61.74,165.19c-20,0-36.24,15.62-36.24,34.89S269.46,235,289.47,235s36.25-15.63,36.25-34.9S309.49,165.19,289.47,165.19Zm28.38,33.65c-11.74,30.95-53.93,10.87-39.8-20.68C229.49,222.72,314.39,256.71,317.85,198.84ZM166,165.19c-20,0-36.24,15.62-36.24,34.89S146,235,166,235s36.24-15.63,36.24-34.9S186,165.19,166,165.19Zm28.38,33.65c-11.74,30.95-53.93,10.87-39.8-20.68C106,222.72,190.91,256.71,194.37,198.84ZM265,255.07l2.08,5.12-35,34.12c10.91,9.85,23.49,15.28,35.08,16.49,17.82,1.84,34-6.28,36-25.56l5.92.6c-2.36,22.62-21.42,33.07-42.55,30.87-12.88-1.34-26.81-7.35-38.77-18.27-12,10.92-25.89,16.93-38.76,18.27-21.13,2.2-40.19-8.25-42.56-30.87l5.92-.6c2,19.28,18.2,27.4,36,25.56,11.58-1.21,24.17-6.64,35.08-16.49l-35-34.12,2.08-5.12ZM227.76,290.2,257.63,261H197.89Zm84.87-169.37L374.29,84.4l9.85,7.88L360.3,165.81a125.22,125.22,0,0,1,20.85,68.74c0,81.81-76.26,136.51-153.42,136.51S74.32,316.36,74.32,234.55a125.25,125.25,0,0,1,20.85-68.74L71.32,92.28l9.86-7.88,61.66,36.43a169.45,169.45,0,0,1,169.79,0Z"/></svg>