<svg id="Capa_1" data-name="Capa 1" xmlns="http://www.w3.org/2000/svg" viewBox="0 0 69.85 79.04"><title>logoGato</title><path d="M68.4,42.6a1.54,1.54,0,0,0-1.5,1.5A31.94,31.94,0,0,1,34,76a31.95,31.95,0,0,1-1.4-63.8,1.68,1.68,0,0,0,1.3-.9C35,9,37.1,5,38.7,3.3a11.17,11.17,0,0,1,3.4,5.1,1.35,1.35,0,0,0,1.5.9c.1,0,7.4-.3,11.8,3.3a1.65,1.65,0,0,0,1.9,0,14,14,0,0,1,5.2-2.3,23.61,23.61,0,0,1-1.1,11,36.65,36.65,0,0,1-2.2,5.3,12.5,12.5,0,0,1-11.3,6.9h-.1a13.49,13.49,0,0,1-8-3.2,1.48,1.48,0,0,0-2.1,2.1,15.78,15.78,0,0,0,10,4.1h.2a15.35,15.35,0,0,0,14-8.5,32.31,32.31,0,0,0,2.3-5.7c2.7-8.4.9-13.7.8-14a1.5,1.5,0,0,0-1.4-1h-.1a14.21,14.21,0,0,0-7.2,2.3c-4.2-2.8-9.6-3.2-11.9-3.3C42.1,1.1,39.2.1,38.8,0a2,2,0,0,0-1.3.2c-2.4,1.6-5.1,6.9-6.1,9A35,35,0,0,0,33.9,79h1A35,35,0,0,0,69.8,44,1.36,1.36,0,0,0,68.4,42.6Z" transform="translate(0.04 0.04)"/><path d="M54.5,28.1a6,6,0,0,0,2.2-.4,1.49,1.49,0,0,0-1-2.8,3.05,3.05,0,0,1-3.3-.7,1.49,1.49,0,0,0-2.3,1.9A5.84,5.84,0,0,0,54.5,28.1Z" transform="translate(0.04 0.04)"/><path d="M43.6,24.6a1.49,1.49,0,0,0-1-2.8,3.05,3.05,0,0,1-3.3-.7A1.49,1.49,0,1,0,37,23a6.17,6.17,0,0,0,4.5,2A4.51,4.51,0,0,0,43.6,24.6Z" transform="translate(0.04 0.04)"/></svg>